<svg id="Capa_1" data-name="Capa 1" xmlns="http://www.w3.org/2000/svg" viewBox="0 0 196.02 188.5"><defs><style>.cls-1{fill:#ffb833;}.cls-2{fill:#262b44;}.cls-3{fill:#121728;}.cls-4{fill:#1c2235;}.cls-5{opacity:0.54;}.cls-6{fill:#fff;}</style></defs><g id="Capa_3" data-name="Capa 3"><path class="cls-1" d="M25.8,99.3a1.37,1.37,0,0,1-1.4-1.4,2.54,2.54,0,0,1,.2-.7L38.8,69.4A23.83,23.83,0,0,1,60.2,56.3H140a24.13,24.13,0,0,1,21.4,13.1l14.2,27.8a1.46,1.46,0,0,1-.6,1.9,1.45,1.45,0,0,1-.7.2Z" transform="translate(-1.99 -0.9)"/><path class="cls-2" d="M140,57.8a22.57,22.57,0,0,1,20.1,12.3l14.2,27.8H25.8L40,70.1A22.65,22.65,0,0,1,60.2,57.8H140m0-2.7H60.1A25.21,25.21,0,0,0,37.5,68.9L23.3,96.6a2.67,2.67,0,0,0,1.2,3.7,2.77,2.77,0,0,0,1.3.3H174.3a2.73,2.73,0,0,0,2.8-2.8,3.08,3.08,0,0,0-.3-1.3L162.6,68.7A25.33,25.33,0,0,0,140,55.1Z" transform="translate(-1.99 -0.9)"/><path class="cls-1" d="M101.7,81.5a58.33,58.33,0,0,1-11.8-1.2C72.8,76.9,61,60.1,63,41.9l2.3-21.2C66.5,10.2,75,2.3,85.1,2.3h30c10.1,0,18.6,7.9,19.8,18.5l2.3,21.7a36.7,36.7,0,0,1-7.8,26.9,32.29,32.29,0,0,1-22.2,12C105.3,81.4,103.4,81.5,101.7,81.5Z" transform="translate(-1.99 -0.9)"/><path class="cls-2" d="M114.9,3.6c9.4,0,17.3,7.4,18.4,17.2l2.4,21.7c2.1,18.7-10.9,35.7-28.8,37.3a45.2,45.2,0,0,1-5.2.2,56.39,56.39,0,0,1-11.6-1.2C73.7,75.6,62.5,59.5,64.4,42l2.3-21.2c1.1-9.8,9-17.2,18.4-17.2h29.8M115,.9H85C74.2.9,65.1,9.4,63.9,20.6L61.6,41.8a37.78,37.78,0,0,0,6.5,25.7A34.9,34.9,0,0,0,89.6,81.7a62.05,62.05,0,0,0,12.1,1.2,50.68,50.68,0,0,0,5.5-.3,34.28,34.28,0,0,0,23.2-12.5,38,38,0,0,0,8.2-27.9l-2.4-21.7C134.9,9.4,125.8.9,115,.9Z" transform="translate(-1.99 -0.9)"/><ellipse class="cls-2" cx="98.91" cy="168.5" rx="34" ry="17.5"/><path class="cls-3" d="M100.9,189.4c-20.47,0-36.5-8.78-36.5-20s16-20,36.5-20,36.5,8.79,36.5,20S121.37,189.4,100.9,189.4Zm0-35c-17.07,0-31.5,6.87-31.5,15s14.43,15,31.5,15,31.5-6.87,31.5-15S118,154.4,100.9,154.4Z" transform="translate(-1.99 -0.9)"/><path class="cls-3" d="M100.9,183.7c-12.6,0-24.29-3.95-29.77-10.07a.5.5,0,0,1,.74-.66c5.3,5.91,16.7,9.73,29,9.73,11,0,21-2.87,27-7.69a.5.5,0,1,1,.62.78C122.4,180.74,112.08,183.7,100.9,183.7Z" transform="translate(-1.99 -0.9)"/><path class="cls-2" d="M100,163.6c-23,0-46.4-5.5-69.4-16.4a15.4,15.4,0,0,1-7.9-8.9L3.6,81.5A3.94,3.94,0,0,1,4.1,78a3.84,3.84,0,0,1,3.1-1.6c.3,0,.6.1.8.1a436.94,436.94,0,0,0,91.9,10,436.94,436.94,0,0,0,91.9-10,2.49,2.49,0,0,1,.8-.1,3.84,3.84,0,0,1,3.1,1.6,3.94,3.94,0,0,1,.5,3.5L177,138.3a15.4,15.4,0,0,1-7.9,8.9C146.4,158.1,123,163.6,100,163.6Z" transform="translate(-1.99 -0.9)"/><path class="cls-3" d="M192.7,77.8a2.34,2.34,0,0,1,2.4,2.5c0,.3-.1.6-.1.8l-19.2,56.8a14,14,0,0,1-7.2,8.1c-22.9,10.8-45.8,16.3-68.7,16.3s-45.8-5.4-68.7-16.2A13.73,13.73,0,0,1,24,138L4.9,81a2.62,2.62,0,0,1,1.6-3.2,2.2,2.2,0,0,1,.8-.1,1.27,1.27,0,0,1,.6.1,433.21,433.21,0,0,0,92.2,10,433.21,433.21,0,0,0,92.2-10h.4m.1-2.8c-.4,0-.7.1-1.1.1A427.57,427.57,0,0,1,100.1,85,427.8,427.8,0,0,1,8.4,75.1,4.1,4.1,0,0,0,7.3,75,5.26,5.26,0,0,0,3,77.2a5,5,0,0,0-.7,4.7l19.2,56.8a16.5,16.5,0,0,0,8.6,9.7c23.2,11,46.7,16.5,70,16.5s46.8-5.6,69.9-16.5a16.18,16.18,0,0,0,8.6-9.7l19.1-56.8a5.17,5.17,0,0,0-.7-4.8,5.26,5.26,0,0,0-4.2-2.1Z" transform="translate(-1.99 -0.9)"/><path class="cls-4" d="M100.1,152.8a58.12,58.12,0,0,1-22.2-4.7,8.52,8.52,0,0,1-4.8-5.5l-8.7-31.7a2.14,2.14,0,0,1,.3-1.9,1.71,1.71,0,0,1,1.3-.7c.2,0,.3,0,.4.1A123.24,123.24,0,0,0,100,113a130.9,130.9,0,0,0,33.6-4.6.6.6,0,0,1,.4-.1,1.71,1.71,0,0,1,1.3.7,1.88,1.88,0,0,1,.3,1.9l-8.8,31.7A8.1,8.1,0,0,1,122,148,53,53,0,0,1,100.1,152.8Z" transform="translate(-1.99 -0.9)"/><path class="cls-3" d="M134,109.2a1.17,1.17,0,0,1,.9,1.5l-8.7,31.7a7.51,7.51,0,0,1-4.3,4.9,56.54,56.54,0,0,1-21.8,4.7,54.87,54.87,0,0,1-21.9-4.7,7.51,7.51,0,0,1-4.3-4.9l-8.7-31.7a1.13,1.13,0,0,1,.9-1.5c.1,0,.1,0,.2.1a128.83,128.83,0,0,0,33.8,4.7,124.78,124.78,0,0,0,33.8-4.7l.1-.1m0-1.7c-.2,0-.4.1-.6.1a125.76,125.76,0,0,1-33.4,4.6,130,130,0,0,1-33.4-4.6,1.48,1.48,0,0,0-.7-.1,2.61,2.61,0,0,0-2,1,3,3,0,0,0-.5,2.6l8.7,31.7a9.32,9.32,0,0,0,5.3,6,58.25,58.25,0,0,0,22.5,4.8,57.76,57.76,0,0,0,22.4-4.8,9.32,9.32,0,0,0,5.3-6l8.7-31.7a2.71,2.71,0,0,0-.5-2.6,2,2,0,0,0-1.8-1Z" transform="translate(-1.99 -0.9)"/><path class="cls-3" d="M99.88,147.81a40.53,40.53,0,0,1-21-6.25,6.41,6.41,0,0,1-2.65-3.67l-5.71-21.43a2.1,2.1,0,0,1,.56-2.09,1.5,1.5,0,0,1,1.52-.32A101.87,101.87,0,0,0,127,114l.13,0a1.91,1.91,0,0,1,1.73.67,1.93,1.93,0,0,1,.37,1.8l-5.69,21.38a6.34,6.34,0,0,1-2.58,3.65Q110.46,147.81,99.88,147.81ZM72.51,116.09l5.66,21.25a4.41,4.41,0,0,0,1.77,2.52c13.42,8,26.5,8,40,0a4.27,4.27,0,0,0,1.74-2.46L127.31,116A103.88,103.88,0,0,1,72.51,116.09Z" transform="translate(-1.99 -0.9)"/><path class="cls-2" d="M108.8,174.9c-5.6,3.5-11.4,3.4-17.4-.1a3.9,3.9,0,0,1-1.9-3.4V140.6A10.67,10.67,0,0,1,100.1,130h0a10.67,10.67,0,0,1,10.6,10.6v30.9A4.39,4.39,0,0,1,108.8,174.9Z" transform="translate(-1.99 -0.9)"/><path class="cls-3" d="M100.38,180a20.26,20.26,0,0,1-10.24-3A6.43,6.43,0,0,1,87,171.4V140.6a13.1,13.1,0,0,1,26.2,0v31.08a6.87,6.87,0,0,1-3,5.33h0A18.22,18.22,0,0,1,100.38,180Zm-.28-47.49a8.21,8.21,0,0,0-8.1,8.1v30.8a1.4,1.4,0,0,0,.66,1.24c5.23,3.05,10.07,3.1,14.8.15a1.91,1.91,0,0,0,.74-1.4V140.6A8.21,8.21,0,0,0,100.1,132.5Z" transform="translate(-1.99 -0.9)"/><path d="M103.89,94C73.35,94,42,90.18,8.59,82.49a.5.5,0,1,1,.22-1c65.14,15,122.67,15.34,181.07,1a.5.5,0,1,1,.24,1A358.78,358.78,0,0,1,103.89,94Z" transform="translate(-1.99 -0.9)"/><path class="cls-2" d="M85.8,41.1h0a2.43,2.43,0,0,1,2.4,2.4v12a2.43,2.43,0,0,1-2.4,2.4h0a2.43,2.43,0,0,1-2.4-2.4V43.4A2.49,2.49,0,0,1,85.8,41.1Z" transform="translate(-1.99 -0.9)"/><path class="cls-2" d="M114.2,41.1h0a2.43,2.43,0,0,1,2.4,2.4v12a2.43,2.43,0,0,1-2.4,2.4h0a2.43,2.43,0,0,1-2.4-2.4V43.4A2.42,2.42,0,0,1,114.2,41.1Z" transform="translate(-1.99 -0.9)"/><path class="cls-2" d="M101.61,73c-6.15,0-12.49-1.72-16.74-5.15a1,1,0,0,1,1.26-1.56c7.7,6.24,23.56,6.28,29.76.07a1,1,0,0,1,1.42,1.42C113.83,71.29,107.82,73,101.61,73Z" transform="translate(-1.99 -0.9)"/><g class="cls-5"><rect class="cls-6" x="71.71" y="36.4" width="24.3" height="24.3" rx="5.6"/></g><path class="cls-2" d="M92.4,64.1H79.3A8.1,8.1,0,0,1,71.2,56V42.9a8.1,8.1,0,0,1,8.1-8.1H92.4a8.1,8.1,0,0,1,8.1,8.1V56A8.1,8.1,0,0,1,92.4,64.1ZM79.3,39.8a3.1,3.1,0,0,0-3.1,3.1V56a3.1,3.1,0,0,0,3.1,3.1H92.4A3.1,3.1,0,0,0,95.5,56V42.9a3.1,3.1,0,0,0-3.1-3.1Z" transform="translate(-1.99 -0.9)"/><g class="cls-5"><rect class="cls-6" x="100.11" y="36.4" width="24.3" height="24.3" rx="5.6"/></g><path class="cls-2" d="M120.8,64.1H107.7A8.1,8.1,0,0,1,99.6,56V42.9a8.1,8.1,0,0,1,8.1-8.1h13.1a8.1,8.1,0,0,1,8.1,8.1V56A8.1,8.1,0,0,1,120.8,64.1ZM107.7,39.8a3.1,3.1,0,0,0-3.1,3.1V56a3.1,3.1,0,0,0,3.1,3.1h13.1a3.1,3.1,0,0,0,3.1-3.1V42.9a3.1,3.1,0,0,0-3.1-3.1Z" transform="translate(-1.99 -0.9)"/><path class="cls-2" d="M59.9,36.2,73.7,49.7v-6L61.2,34.6a1.11,1.11,0,0,0-1.5.2A1.23,1.23,0,0,0,59.9,36.2Z" transform="translate(-1.99 -0.9)"/><path class="cls-2" d="M140.1,36.2,126.3,49.7v-6l12.4-9.1a1.11,1.11,0,0,1,1.5.2A1,1,0,0,1,140.1,36.2Z" transform="translate(-1.99 -0.9)"/><rect class="cls-2" x="95.91" y="43" width="4.2" height="10"/></g></svg>