<svg id="Capa_1" data-name="Capa 1" xmlns="http://www.w3.org/2000/svg" xmlns:xlink="http://www.w3.org/1999/xlink" viewBox="0 0 185.1 164.75"><defs><style>.cls-1{fill:#262b44;}.cls-2{fill:#ffb833;}.cls-3{fill:url(#Degradado_sin_nombre);}.cls-4{fill:url(#Degradado_sin_nombre_2);}.cls-5{fill:url(#Degradado_sin_nombre_3);}.cls-6,.cls-7{fill:none;stroke:#262b44;stroke-linecap:round;stroke-linejoin:round;}.cls-6{stroke-width:3px;}.cls-7{stroke-width:10px;}</style><linearGradient id="Degradado_sin_nombre" x1="88.82" y1="-14.39" x2="117.23" y2="-45.91" gradientTransform="matrix(1, 0, 0, -1, 9.19, 26)" gradientUnits="userSpaceOnUse"><stop offset="0" stop-color="#fc0" stop-opacity="0"/><stop offset="0.07" stop-color="#fec802" stop-opacity="0.04"/><stop offset="0.17" stop-color="#fcbe07" stop-opacity="0.13"/><stop offset="0.31" stop-color="#f9ae0e" stop-opacity="0.29"/><stop offset="0.46" stop-color="#f59719" stop-opacity="0.51"/><stop offset="0.63" stop-color="#f07a27" stop-opacity="0.79"/><stop offset="0.75" stop-color="#ec6531"/></linearGradient><linearGradient id="Degradado_sin_nombre_2" x1="43.53" y1="-92.23" x2="63.97" y2="-101.35" xlink:href="#Degradado_sin_nombre"/><linearGradient id="Degradado_sin_nombre_3" x1="70.2" y1="-93.36" x2="154.78" y2="-131.11" xlink:href="#Degradado_sin_nombre"/></defs><g id="Capa_1-2" data-name="Capa 1-2"><path class="cls-1" d="M20.5,46.6H179.6a11.86,11.86,0,0,1,11.9,11.9V143a11.86,11.86,0,0,1-11.9,11.9H20.5A11.86,11.86,0,0,1,8.6,143V58.5A11.86,11.86,0,0,1,20.5,46.6Z" transform="translate(-7.5 -2)"/><path class="cls-1" d="M179.5,47.8a10.71,10.71,0,0,1,10.7,10.7h0V143a10.71,10.71,0,0,1-10.7,10.7H20.5A10.71,10.71,0,0,1,9.8,143h0V58.5A10.71,10.71,0,0,1,20.5,47.8h159m0-2.4H20.5a13,13,0,0,0-13,13V143a13,13,0,0,0,13,13H179.6a13,13,0,0,0,13-13V58.5A13.14,13.14,0,0,0,179.5,45.4Z" transform="translate(-7.5 -2)"/><path class="cls-2" d="M160.5,149.6l-.2.1a21.31,21.31,0,0,1-12.4,4H45.3a6.16,6.16,0,0,1-5.3-3,18.05,18.05,0,0,1-1.8-15.2L54.1,88.2A13.44,13.44,0,0,1,66.2,79l21.3-1.3a2.27,2.27,0,0,0,2.2-2.1l.8-7.3a2.37,2.37,0,0,0-2.1-2.6h0A41.35,41.35,0,0,1,72,60.6a12.38,12.38,0,0,1-5.5-15.2l8.3-21.9A17.42,17.42,0,0,1,88,12.5,125.43,125.43,0,0,1,114.3,11a8.91,8.91,0,0,1,5.8,2.4l5.7,5.3a10.38,10.38,0,0,1,3.4,8.1L128.8,47A14.11,14.11,0,0,1,120,59.8c-3,1.2-5.9,2.3-8.8,3.2a2.5,2.5,0,0,0-1.8,2.5v8.3a2.65,2.65,0,0,0,2.6,2.6h.2l18.5-1.1a16,16,0,0,1,15.8,10l18.8,46.6A15,15,0,0,1,160.5,149.6Z" transform="translate(-7.5 -2)"/><path class="cls-1" d="M108.4,11.2c1.9,0,3.9,0,5.9.1a8.91,8.91,0,0,1,5.8,2.4l5.8,5.3a10.38,10.38,0,0,1,3.4,8.1L128.8,47A14.11,14.11,0,0,1,120,59.8c-3,1.2-5.9,2.3-8.8,3.2a2.5,2.5,0,0,0-1.8,2.5v8.3a2.65,2.65,0,0,0,2.6,2.6h.1l18.5-1.1h1a16,16,0,0,1,14.8,10l18.8,46.6a15.07,15.07,0,0,1-4.8,17.7l-.2.1a21.31,21.31,0,0,1-12.4,4H45.3a6.16,6.16,0,0,1-5.3-3,18.05,18.05,0,0,1-1.8-15.2L54.1,88.2A13.44,13.44,0,0,1,66.2,79l21.3-1.3a2.27,2.27,0,0,0,2.2-2.1l.8-7.3a2.37,2.37,0,0,0-2.1-2.6h0A41.35,41.35,0,0,1,72,60.6a12.38,12.38,0,0,1-5.5-15.2l8.3-21.9A17.42,17.42,0,0,1,88,12.5a155.24,155.24,0,0,1,20.4-1.3m0-2.4a118.83,118.83,0,0,0-20.7,1.7,19.78,19.78,0,0,0-15,12.4L64.4,44.8A15.51,15.51,0,0,0,64.3,55a14.48,14.48,0,0,0,6.6,7.8,42.07,42.07,0,0,0,17.3,5.3h.1l-.8,7.3s0,.1-.1,0L66.1,76.6A16.19,16.19,0,0,0,52,87.6L36,135a20.2,20.2,0,0,0,2,17.1,8.56,8.56,0,0,0,7.2,4H147.8a23.6,23.6,0,0,0,13.8-4.4c.1,0,.1-.1.2-.2a17.4,17.4,0,0,0,5.6-20.4L148.6,84.5a18.23,18.23,0,0,0-17-11.5h-1.1l-18.6,1.1h0a.32.32,0,0,1-.3-.3h0V65.5c0-.1.1-.2.2-.3q4.35-1.35,9-3.3a16.35,16.35,0,0,0,10.1-14.8l.5-19.9a13.29,13.29,0,0,0-4.1-9.9L121.5,12a11.11,11.11,0,0,0-7.3-3c-1.8-.1-3.9-.2-5.8-.2Z" transform="translate(-7.5 -2)"/><path class="cls-2" d="M89.5,162l-5.7,2.2a13,13,0,0,1-14.7-3.9l-5.3-6.5H45.3a6.16,6.16,0,0,1-5.3-3,18.05,18.05,0,0,1-1.8-15.2L54.1,88.3a13.85,13.85,0,0,1,9.6-8.9l1.5,53.9a1.78,1.78,0,0,0,1,1.6,13.32,13.32,0,0,1,4.6,3.9,2,2,0,0,0,1.7.8l10.3-.2a6.57,6.57,0,0,1,6.6,4.4l3.4,9.9.2.6A6,6,0,0,1,89.5,162Z" transform="translate(-7.5 -2)"/><path class="cls-2" d="M166.3,140.3h0a15,15,0,0,1-5.7,9.4l-.2.1a21.31,21.31,0,0,1-12.4,4h-3a19.39,19.39,0,0,1-16.8-9.6L92,82.9h0a7.05,7.05,0,0,1-7.3,2.4L72.8,81.7c-2.2-.8-3.8-3.3-2.1-5.2h0L80.9,64.6l3.3-4.1a10.47,10.47,0,0,1,14.7-1.6,10.61,10.61,0,0,1,1.5,1.5l9.2,11.2,4.1,5Z" transform="translate(-7.5 -2)"/><path class="cls-3" d="M99.4,59.5s13.9-.4,18.3-1.3,8.2-4.6,8.2-4.6-.3,3.5-7.7,6.4c-5.5,2.2-7.9,2.3-8.8,3.7-.6,1-.5,4.6-.5,4.6v1.9Z" transform="translate(-7.5 -2)"/><path class="cls-4" d="M55.3,133.2a9.18,9.18,0,0,1,5.9-.2,43.83,43.83,0,0,1,4.3,1.5l-.9-24.8Z" transform="translate(-7.5 -2)"/><path class="cls-5" d="M108.5,110.4l-2.7,42.7H139s-1.5.1-4.9-2.5-6.6-6.9-8.8-10.8S108.5,110.4,108.5,110.4Z" transform="translate(-7.5 -2)"/><path class="cls-6" d="M64.7,109.2l.7,24.3a1.78,1.78,0,0,0,1,1.6A13.32,13.32,0,0,1,71,139a2,2,0,0,0,1.7.8l10.3-.2a6.57,6.57,0,0,1,6.6,4.4l3.4,9.9.2.6a6.09,6.09,0,0,1-3.6,7.7l-5.7,2.2a13,13,0,0,1-14.7-3.9L63.9,154H45.3a6.16,6.16,0,0,1-5.3-3,18.05,18.05,0,0,1-1.8-15.2L53,87.14A14.27,14.27,0,0,1,63,78" transform="translate(-7.5 -2)"/><path class="cls-6" d="M65.8,134.6c-4.8-2.3-9.6-3-13.8.5" transform="translate(-7.5 -2)"/><path class="cls-6" d="M167.6,139.9a16.26,16.26,0,0,1-5.9,10.1l-.2.1a20.71,20.71,0,0,1-12.5,4h-3a19.64,19.64,0,0,1-16.9-9.6L92.6,82.8h0a6.82,6.82,0,0,1-7.3,2.4l-12-3.6c-2.2-.8-3.9-3.3-2.1-5.3h0l10.2-12,3.3-4.1a10.5,10.5,0,0,1,14.8-1.6,10.61,10.61,0,0,1,1.5,1.5l9.3,11.2,4.1,5,33.8,40.9" transform="translate(-7.5 -2)"/><line class="cls-6" x1="93" y1="71.1" x2="85.1" y2="80.8"/><line class="cls-7" x1="76.3" y1="22.2" x2="73.3" y2="31.9"/><line class="cls-7" x1="91" y1="21.1" x2="89.1" y2="31.1"/><path class="cls-6" d="M78.4,44.2c2.8,5.6,12.9,5.1,18.7-1.4" transform="translate(-7.5 -2)"/><path class="cls-6" d="M133.6,3.5A32.59,32.59,0,0,1,147,29.9a16.68,16.68,0,0,1-.2,3.2" transform="translate(-7.5 -2)"/><path class="cls-6" d="M128.6,10.3a24.3,24.3,0,0,1,9.9,19.5,19.27,19.27,0,0,1-.1,2.4" transform="translate(-7.5 -2)"/></g></svg>