<svg id="Capa_1" data-name="Capa 1" xmlns="http://www.w3.org/2000/svg" xmlns:xlink="http://www.w3.org/1999/xlink" viewBox="0 0 192.79 157.4"><defs><style>.cls-1{fill:#262b44;}.cls-2{fill:#ffb833;}.cls-3,.cls-4{fill:none;stroke:#262b44;stroke-linecap:round;stroke-miterlimit:10;}.cls-3{stroke-width:10px;}.cls-4{stroke-width:2px;}.cls-5{opacity:0.48;isolation:isolate;fill:url(#Degradado_sin_nombre_3);}</style><linearGradient id="Degradado_sin_nombre_3" x1="25.86" y1="-79.47" x2="68.05" y2="-79.47" gradientTransform="matrix(1, 0, 0, -1, 8.33, 38)" gradientUnits="userSpaceOnUse"><stop offset="0" stop-color="#fc0" stop-opacity="0"/><stop offset="0.07" stop-color="#fec802" stop-opacity="0.04"/><stop offset="0.17" stop-color="#fcbe07" stop-opacity="0.13"/><stop offset="0.31" stop-color="#f9ae0e" stop-opacity="0.29"/><stop offset="0.46" stop-color="#f59719" stop-opacity="0.51"/><stop offset="0.63" stop-color="#f07a27" stop-opacity="0.79"/><stop offset="0.75" stop-color="#ec6531"/></linearGradient></defs><g id="Capa_4" data-name="Capa 4"><path class="cls-1" d="M16,51.8H158.3a11.35,11.35,0,0,1,11.3,11.3v86a11.35,11.35,0,0,1-11.3,11.3H16A11.35,11.35,0,0,1,4.7,149.1V63.2A11.37,11.37,0,0,1,16,51.8Z" transform="translate(-3.6 -4.3)"/><path class="cls-1" d="M158.4,52.9a10.18,10.18,0,0,1,10.2,10.2v86a10.18,10.18,0,0,1-10.2,10.2H16A10.18,10.18,0,0,1,5.8,149.1V63.2A10.18,10.18,0,0,1,16,53l142.4-.1m0-2.2H16A12.4,12.4,0,0,0,3.6,63.1v86A12.4,12.4,0,0,0,16,161.5H158.3a12.4,12.4,0,0,0,12.4-12.4V63.2A12.34,12.34,0,0,0,158.4,50.7Z" transform="translate(-3.6 -4.3)"/><path class="cls-1" d="M61.6,18.5a14.35,14.35,0,0,1,11.6,5.9l13.1,18a11.48,11.48,0,0,1-2.5,16,3.51,3.51,0,0,1-.8.5l-23.1,14-7.5-.6a15.27,15.27,0,0,1-12.1-7.7L30.7,47.8a15.23,15.23,0,0,1,5.8-20.7c.1,0,.2-.1.3-.2l8.5-4.6a32.52,32.52,0,0,1,15.6-3.9h.7m0-2.1h-.8a34.4,34.4,0,0,0-16.6,4.2L35.7,25a17.46,17.46,0,0,0-7.1,23.6c0,.1.1.2.2.4l9.5,16.8a17.37,17.37,0,0,0,13.9,8.8l7.5.6h.2a2.66,2.66,0,0,0,1.2-.3l23.1-14a13.66,13.66,0,0,0,4.6-18.8,3.59,3.59,0,0,0-.7-1L74.9,23A16.34,16.34,0,0,0,61.6,16.3Z" transform="translate(-3.6 -4.3)"/><path class="cls-2" d="M83,58.9l-23.1,14-7.5-.6a15.27,15.27,0,0,1-12.1-7.7L30.7,47.8a15.23,15.23,0,0,1,5.8-20.7c.1,0,.2-.1.3-.2l8.5-4.6a32.52,32.52,0,0,1,15.6-3.9h.8a14.35,14.35,0,0,1,11.6,5.9l13.1,18a11.48,11.48,0,0,1-2.5,16A7,7,0,0,0,83,58.9Z" transform="translate(-3.6 -4.3)"/><path class="cls-2" d="M192.9,140.3l-10.4-3.1a2,2,0,0,0-1.5.2l-11.4,6.7a5.42,5.42,0,0,1-6.6-.8l-12.2-12.2a13.4,13.4,0,0,0-6.1-3.5l-24.3-6.2c-4.2-16-9.7-31-17.3-44.7l.6-.5,90.1,62.6a1,1,0,0,1,.4,1.2A1.12,1.12,0,0,1,192.9,140.3Z" transform="translate(-3.6 -4.3)"/><path class="cls-1" d="M103.6,76.1l90.1,62.6a.93.93,0,0,1,.2,1.3,1,1,0,0,1-.7.4h-.3l-10.4-3.1a4.33,4.33,0,0,1-.5-.1,1.61,1.61,0,0,0-.9.3l-11.4,6.7a5.42,5.42,0,0,1-6.6-.8l-12.2-12.2a13.4,13.4,0,0,0-6.1-3.5l-24.3-6.2c-4.2-16-9.7-31-17.3-44.7l.4-.7m0-2.3a1.89,1.89,0,0,0-1.5.6l-.6.5a2.27,2.27,0,0,0-.4,2.7c7.2,12.9,12.8,27.3,17.2,44.2a2.17,2.17,0,0,0,1.6,1.6l24.3,6.2a10.52,10.52,0,0,1,5,2.9l12.2,12.2a7.58,7.58,0,0,0,9.3,1.2l11.3-6.6,10.3,3.1a3,3,0,0,0,3.9-1.9,3.06,3.06,0,0,0-1.3-3.7L104.8,74.2a2.14,2.14,0,0,0-1.2-.4Z" transform="translate(-3.6 -4.3)"/><path class="cls-2" d="M161.5,15.5a2.14,2.14,0,0,0-.3,2.7l3.6,5.5a4.87,4.87,0,0,1-1.4,6.8,4.67,4.67,0,0,1-1,.5l-16.6,6.2a19.88,19.88,0,0,0-6.9,4.4L103.5,76.1l-.6.5a187.77,187.77,0,0,1,17.3,44.7,334,334,0,0,1,7.3,38.2H46.4l1-37.1A48,48,0,0,0,46,109.9l-2.6-10a20.12,20.12,0,0,1,8.3-21.8l95.6-63.9a37.15,37.15,0,0,1,7.7-3.9,109.31,109.31,0,0,1,12.7-3.8,1.07,1.07,0,0,1,1.3.8.91.91,0,0,1-.3,1Z" transform="translate(-3.6 -4.3)"/><path class="cls-1" d="M167.9,6.5A1.11,1.11,0,0,1,169,7.6a1.33,1.33,0,0,1-.3.8l-7.1,7.1a2.14,2.14,0,0,0-.3,2.7l3.6,5.5a4.93,4.93,0,0,1-1.3,6.8,4.67,4.67,0,0,1-1,.5L146,37.2a19.88,19.88,0,0,0-6.9,4.4L103.8,76.1l-.6.5a187.77,187.77,0,0,1,17.3,44.7,334,334,0,0,1,7.3,38.2l-81.2-.1,1-37a48,48,0,0,0-1.4-12.5L43.5,99.8A20.12,20.12,0,0,1,51.8,78l95.6-63.9a37.15,37.15,0,0,1,7.7-3.9,109.31,109.31,0,0,1,12.7-3.8c-.1.1,0,.1.1.1m0-2.2h0a2.2,2.2,0,0,0-.8.1,95.88,95.88,0,0,0-12.9,3.9,38.85,38.85,0,0,0-8.1,4.2L50.5,76.2a22.35,22.35,0,0,0-9.2,24.2l2.6,10a43.1,43.1,0,0,1,1.4,11.9l-1,37a2.24,2.24,0,0,0,2.2,2.3h0l81.2.1h0a2.22,2.22,0,0,0,2.2-2.2v-.3a314.73,314.73,0,0,0-7.3-38.5A193.1,193.1,0,0,0,105.9,77l34.7-33.8a17.59,17.59,0,0,1,6.2-3.9l16.6-6.2a7.12,7.12,0,0,0,4.2-9.1,5.48,5.48,0,0,0-.8-1.5L163.2,17l7.1-7.1a3.2,3.2,0,0,0,0-4.6,3.25,3.25,0,0,0-2.4-1Z" transform="translate(-3.6 -4.3)"/><line class="cls-3" x1="63.8" y1="24.2" x2="68.2" y2="30.4"/><line class="cls-3" x1="49.3" y1="32.4" x2="52.8" y2="39"/><path class="cls-4" d="M77.8,42.3c-2,8.2-8.2,10.6-16.9,9.5" transform="translate(-3.6 -4.3)"/><path class="cls-5" d="M45,85.5a16.26,16.26,0,0,1,3.7-5c2.8-2.7,7.6-6.5,10-4.1,3.5,3.5-8.1,24.7,1.9,29.1s15.6,20.1,15.8,32.3-.6,21.4-.6,21.4l-39.4.1-2.1-47.9Z" transform="translate(-3.6 -4.3)"/></g></svg>